:SAMPLES-PER-SECOND 30
:FRAME-RANGE 1-564
:FULLY-SPECIFIED
:DEGREES
159
root  29.267 38.7719 90.9522 179.982 -56.68 -178.664
RightUpLeg  -20.0002 -8.29019 -5.41165
RightLeg  19.6911 -1.96078 -0.925097
RightFoot  0.771252 -0.60269 5.72471
RightToes  1.21801e-010 1.2921e-014 -6.02303e-014
Spine  -0.83379 5.10548 16.6773
Spine1  5.64146 7.75024 -10.7391
HEad  18.4106 21.4741 -4.17157
LeftShoulder1  1.24464 -2.40221 -15.2276
LeftArm  -14.5857 -9.40517 -28.8396
LeftForeArm  -33.9414 -32.7449 -8.84304
LeftHand  -0.0588476 5.72956 -6.80913
RightShoulder  2.45407 8.45961 14.0848
RightArm  6.80136 52.1435 77.5573
RightForeArm  10.6456 12.4979 8.60676
RightHand  -0.0247259 -8.52487 -0.77079
LeftUpLeg  -12.9441 -24.0516 6.26742
LeftLeg  45.1962 -1.20262 -0.886466
LeftFoot  -11.8191 0.048478 -5.34854
LeftToes  1.70735e-010 3.74918e-011 3.68705e-011
160
root  29.2605 39.0532 89.8438 -179.472 -57.9274 -178.707
RightUpLeg  -18.9579 -9.75231 -4.01741
RightLeg  19.0515 -2.06324 -0.807149
RightFoot  0.0541184 -0.422931 4.23972
RightToes  1.21801e-010 1.2921e-014 -6.02303e-014
Spine  -0.348458 5.43645 16.2801
Spine1  5.52596 8.19952 -11.1424
HEad  18.2264 20.9751 -2.76845
LeftShoulder1  1.22554 -2.45567 -14.6429
LeftArm  -14.7324 -9.71563 -28.1314
LeftForeArm  -34.8023 -32.7556 -8.87648
LeftHand  -0.0147785 5.10983 -9.42002
RightShoulder  2.44368 8.50624 13.8971
RightArm  14.1065 51.2425 77.0563
RightForeArm  1.76552 15.8785 8.2356
RightHand  -0.0610983 -8.95613 0.371941
LeftUpLeg  -15.3742 -21.6787 6.30733
LeftLeg  44.7153 1.50885 2.00916
LeftFoot  -12.569 0.0320999 -4.03272
LeftToes  1.70735e-010 3.74918e-011 3.68705e-011
161
root  29.2398 39.2927 88.8557 -178.651 -59.9603 -178.909
RightUpLeg  -17.9836 -10.5507 -3.11016
RightLeg  18.2745 -3.45029 -0.989029
RightFoot  -0.660925 -0.299504 3.15413
RightToes  1.21801e-010 1.2921e-014 -6.02303e-014
Spine  -0.183839 5.349 15.7528
Spine1  5.55341 8.14302 -11.3566
HEad  17.7007 20.5804 -1.90712
LeftShoulder1  1.1848 -2.37794 -14.1747
LeftArm  -14.6412 -9.78645 -26.8837
LeftForeArm  -34.4516 -34.3782 -9.33619
LeftHand  0.0816368 4.20025 -11.14
RightShoulder  2.41673 8.51729 13.6241
RightArm  24.7477 49.4646 76.0265
RightForeArm  -11.1683 21.9243 5.91776
RightHand  -0.125185 -9.50518 1.96599
LeftUpLeg  -17.3429 -19.5732 5.80162
LeftLeg  41.3515 -0.00525021 0.384154
LeftFoot  -12.7967 0.0251592 -4.05525
LeftToes  1.70735e-010 3.74918e-011 3.68705e-011
162
root  29.2043 39.4865 87.9769 -177.422 -62.8171 -179.322
RightUpLeg  -17.322 -11.5419 -2.5307
RightLeg  17.6756 -5.47184 -1.17874
RightFoot  -1.35654 -0.191093 2.08073
RightToes  1.21801e-010 1.2921e-014 -6.02303e-014
Spine  -0.148649 5.04294 14.9206
Spine1  5.13733 7.67063 -11.1044
HEad  17.6594 19.8746 -1.32959
LeftShoulder1  1.16189 -2.32171 -13.9561
LeftArm  -13.1239 -10.1802 -25.2571
LeftForeArm  -33.1686 -37.1491 -10.1473
LeftHand  0.161121 3.54345 -11.9049
RightShoulder  2.37651 8.3142 13.6348
RightArm  24.8031 47.3252 73.2622
RightForeArm  -13.8359 28.1287 6.78086
RightHand  -0.224687 -10.2815 3.82008
LeftUpLeg  -19.052 -17.8678 4.78389
LeftLeg  36.6362 -3.89859 -2.74454
LeftFoot  -12.7418 0.0120076 -5.2591
LeftToes  1.70735e-010 3.74918e-011 3.68705e-011
163
root  29.137 39.6699 87.1971 -175.972 -65.8313 179.949
RightUpLeg  -16.474 -11.7762 -2.31749
RightLeg  16.7778 -8.34633 -1.38075
RightFoot  -1.90876 -0.14009 1.53976
RightToes  1.21801e-010 1.2921e-014 -6.02303e-014
Spine  -0.491463 4.68963 14.3312
Spine1  5.17632 7.22815 -11.1466
HEad  17.7209 18.6578 -0.688414
LeftShoulder1  1.12482 -2.27656 -13.4087
LeftArm  -11.2437 -10.8845 -24.1534
LeftForeArm  -31.4939 -40.3827 -11.1803
LeftHand  0.228449 3.00257 -12.2974
RightShoulder  2.32467 7.85376 14.0497
RightArm  23.0167 44.9635 69.8577
RightForeArm  -16.0199 35.1652 8.78383
RightHand  -0.301344 -12.8904 3.42769
LeftUpLeg  -19.9651 -16.4155 3.06788
LeftLeg  31.4648 -5.02724 -2.96697
LeftFoot  -12.1811 0.0258554 -6.4181
LeftToes  1.70735e-010 3.74918e-011 3.68705e-011
164
root  29.0382 39.8259 86.499 -174.961 -68.8038 179.48
RightUpLeg  -15.2834 -11.4555 -2.18464
RightLeg  15.5835 -11.89 -1.35326
RightFoot  -2.39278 -0.106837 1.15667
RightToes  1.21801e-010 1.2921e-014 -6.02303e-014
Spine  -0.895331 4.35529 13.7138
Spine1  5.22677 6.7303 -10.8081
HEad  18.1379 17.2098 -0.278188
LeftShoulder1  1.09766 -2.34298 -12.6168
LeftArm  -8.20175 -11.386 -23.7392
LeftForeArm  -26.5968 -44.0308 -12.357
LeftHand  0.211891 3.08269 -11.9112
RightShoulder  2.29509 7.49182 14.5141
RightArm  18.6867 42.1446 65.4597
RightForeArm  -14.8761 40.9303 10.5901
RightHand  -0.216387 -14.7456 1.61249
LeftUpLeg  -19.9065 -15.9113 1.41349
LeftLeg  26.0898 -3.98978 -1.79066
LeftFoot  -11.3101 0.0695832 -6.91391
LeftToes  1.70735e-010 3.74918e-011 3.68705e-011
